<mxfile host="app.diagrams.net" modified="2021-11-13T10:48:34.644Z" agent="5.0 (Windows NT 10.0; Win64; x64) AppleWebKit/537.36 (KHTML, like Gecko) Chrome/95.0.4638.69 Safari/537.36" etag="4pbF9Yp_J2LuK1INl0wS" version="15.7.3" type="github">
  <diagram id="C5RBs43oDa-KdzZeNtuy" name="Page-1">
    <mxGraphModel dx="2047" dy="691" grid="1" gridSize="10" guides="1" tooltips="1" connect="1" arrows="1" fold="1" page="1" pageScale="1" pageWidth="827" pageHeight="1169" math="0" shadow="0">
      <root>
        <mxCell id="WIyWlLk6GJQsqaUBKTNV-0" />
        <mxCell id="WIyWlLk6GJQsqaUBKTNV-1" parent="WIyWlLk6GJQsqaUBKTNV-0" />
        <mxCell id="WIyWlLk6GJQsqaUBKTNV-2" value="" style="rounded=0;html=1;jettySize=auto;orthogonalLoop=1;fontSize=11;endArrow=block;endFill=0;endSize=8;strokeWidth=1;shadow=0;labelBackgroundColor=none;edgeStyle=orthogonalEdgeStyle;" parent="WIyWlLk6GJQsqaUBKTNV-1" source="WIyWlLk6GJQsqaUBKTNV-3" target="WIyWlLk6GJQsqaUBKTNV-6" edge="1">
          <mxGeometry relative="1" as="geometry" />
        </mxCell>
        <mxCell id="WIyWlLk6GJQsqaUBKTNV-3" value="開始" style="rounded=1;whiteSpace=wrap;html=1;fontSize=12;glass=0;strokeWidth=1;shadow=0;" parent="WIyWlLk6GJQsqaUBKTNV-1" vertex="1">
          <mxGeometry x="160" y="80" width="120" height="40" as="geometry" />
        </mxCell>
        <mxCell id="Cm7LI1BW12UdwySumrKe-20" value="" style="edgeStyle=orthogonalEdgeStyle;rounded=0;orthogonalLoop=1;jettySize=auto;html=1;shadow=0;endArrow=block;endFill=0;" edge="1" parent="WIyWlLk6GJQsqaUBKTNV-1" source="WIyWlLk6GJQsqaUBKTNV-6" target="Cm7LI1BW12UdwySumrKe-19">
          <mxGeometry relative="1" as="geometry" />
        </mxCell>
        <mxCell id="Cm7LI1BW12UdwySumrKe-34" value="" style="edgeStyle=elbowEdgeStyle;rounded=0;orthogonalLoop=1;jettySize=auto;html=1;shadow=0;labelBackgroundColor=none;endArrow=block;endFill=0;" edge="1" parent="WIyWlLk6GJQsqaUBKTNV-1" source="WIyWlLk6GJQsqaUBKTNV-6" target="Cm7LI1BW12UdwySumrKe-33">
          <mxGeometry relative="1" as="geometry" />
        </mxCell>
        <mxCell id="WIyWlLk6GJQsqaUBKTNV-6" value="第一次使用?" style="rhombus;whiteSpace=wrap;html=1;shadow=0;fontFamily=Helvetica;fontSize=12;align=center;strokeWidth=1;spacing=6;spacingTop=-4;" parent="WIyWlLk6GJQsqaUBKTNV-1" vertex="1">
          <mxGeometry x="170" y="170" width="100" height="80" as="geometry" />
        </mxCell>
        <mxCell id="WIyWlLk6GJQsqaUBKTNV-8" value="No" style="rounded=0;html=1;jettySize=auto;orthogonalLoop=1;fontSize=11;endArrow=block;endFill=0;endSize=8;strokeWidth=1;shadow=0;labelBackgroundColor=none;edgeStyle=orthogonalEdgeStyle;entryX=0.5;entryY=0;entryDx=0;entryDy=0;" parent="WIyWlLk6GJQsqaUBKTNV-1" source="WIyWlLk6GJQsqaUBKTNV-10" target="Cm7LI1BW12UdwySumrKe-24" edge="1">
          <mxGeometry x="0.3333" y="20" relative="1" as="geometry">
            <mxPoint as="offset" />
            <mxPoint x="220" y="430" as="targetPoint" />
          </mxGeometry>
        </mxCell>
        <mxCell id="WIyWlLk6GJQsqaUBKTNV-9" value="Yes" style="edgeStyle=orthogonalEdgeStyle;rounded=0;html=1;jettySize=auto;orthogonalLoop=1;fontSize=11;endArrow=block;endFill=0;endSize=8;strokeWidth=1;shadow=0;labelBackgroundColor=none;" parent="WIyWlLk6GJQsqaUBKTNV-1" source="WIyWlLk6GJQsqaUBKTNV-10" target="Cm7LI1BW12UdwySumrKe-30" edge="1">
          <mxGeometry y="10" relative="1" as="geometry">
            <mxPoint as="offset" />
            <mxPoint x="320" y="330" as="targetPoint" />
          </mxGeometry>
        </mxCell>
        <mxCell id="WIyWlLk6GJQsqaUBKTNV-10" value="使用按鈕?" style="rhombus;whiteSpace=wrap;html=1;shadow=0;fontFamily=Helvetica;fontSize=12;align=center;strokeWidth=1;spacing=6;spacingTop=-4;" parent="WIyWlLk6GJQsqaUBKTNV-1" vertex="1">
          <mxGeometry x="170" y="360" width="100" height="80" as="geometry" />
        </mxCell>
        <mxCell id="Cm7LI1BW12UdwySumrKe-19" value="&#xa;&#xa;&lt;span style=&quot;color: rgb(0, 0, 0); font-family: helvetica; font-size: 12px; font-style: normal; font-weight: 400; letter-spacing: normal; text-align: center; text-indent: 0px; text-transform: none; word-spacing: 0px; background-color: rgb(248, 249, 250); display: inline; float: none;&quot;&gt;輸入基本資料&lt;/span&gt;&#xa;&#xa;" style="rounded=1;whiteSpace=wrap;html=1;" vertex="1" parent="WIyWlLk6GJQsqaUBKTNV-1">
          <mxGeometry x="-10" y="190" width="120" height="40" as="geometry" />
        </mxCell>
        <mxCell id="Cm7LI1BW12UdwySumrKe-21" value="Yes" style="text;html=1;strokeColor=none;fillColor=none;align=center;verticalAlign=middle;whiteSpace=wrap;rounded=0;" vertex="1" parent="WIyWlLk6GJQsqaUBKTNV-1">
          <mxGeometry x="116" y="184" width="60" height="30" as="geometry" />
        </mxCell>
        <mxCell id="Cm7LI1BW12UdwySumrKe-39" value="" style="edgeStyle=elbowEdgeStyle;rounded=0;orthogonalLoop=1;jettySize=auto;html=1;shadow=0;labelBackgroundColor=none;endArrow=block;endFill=0;" edge="1" parent="WIyWlLk6GJQsqaUBKTNV-1" source="Cm7LI1BW12UdwySumrKe-24" target="Cm7LI1BW12UdwySumrKe-38">
          <mxGeometry relative="1" as="geometry" />
        </mxCell>
        <mxCell id="Cm7LI1BW12UdwySumrKe-24" value="輸入病況描述" style="rounded=1;whiteSpace=wrap;html=1;" vertex="1" parent="WIyWlLk6GJQsqaUBKTNV-1">
          <mxGeometry x="160" y="490" width="120" height="40" as="geometry" />
        </mxCell>
        <mxCell id="Cm7LI1BW12UdwySumrKe-32" value="" style="edgeStyle=elbowEdgeStyle;rounded=0;orthogonalLoop=1;jettySize=auto;html=1;shadow=0;labelBackgroundColor=none;endArrow=block;endFill=0;" edge="1" parent="WIyWlLk6GJQsqaUBKTNV-1" source="Cm7LI1BW12UdwySumrKe-30" target="Cm7LI1BW12UdwySumrKe-31">
          <mxGeometry relative="1" as="geometry" />
        </mxCell>
        <mxCell id="Cm7LI1BW12UdwySumrKe-72" value="" style="edgeStyle=elbowEdgeStyle;rounded=0;orthogonalLoop=1;jettySize=auto;html=1;shadow=0;labelBackgroundColor=none;endArrow=block;endFill=0;" edge="1" parent="WIyWlLk6GJQsqaUBKTNV-1" source="Cm7LI1BW12UdwySumrKe-30" target="Cm7LI1BW12UdwySumrKe-71">
          <mxGeometry relative="1" as="geometry" />
        </mxCell>
        <mxCell id="Cm7LI1BW12UdwySumrKe-30" value="圖像辨識?" style="rhombus;whiteSpace=wrap;html=1;" vertex="1" parent="WIyWlLk6GJQsqaUBKTNV-1">
          <mxGeometry x="340" y="360" width="100" height="80" as="geometry" />
        </mxCell>
        <mxCell id="Cm7LI1BW12UdwySumrKe-31" value="上傳皮膚病圖片" style="rounded=1;whiteSpace=wrap;html=1;" vertex="1" parent="WIyWlLk6GJQsqaUBKTNV-1">
          <mxGeometry x="490" y="380" width="110" height="40" as="geometry" />
        </mxCell>
        <mxCell id="Cm7LI1BW12UdwySumrKe-35" value="" style="edgeStyle=elbowEdgeStyle;rounded=0;orthogonalLoop=1;jettySize=auto;html=1;shadow=0;labelBackgroundColor=none;endArrow=block;endFill=0;" edge="1" parent="WIyWlLk6GJQsqaUBKTNV-1" source="Cm7LI1BW12UdwySumrKe-33" target="WIyWlLk6GJQsqaUBKTNV-10">
          <mxGeometry relative="1" as="geometry" />
        </mxCell>
        <mxCell id="Cm7LI1BW12UdwySumrKe-33" value="確認病人資料" style="rounded=1;whiteSpace=wrap;html=1;" vertex="1" parent="WIyWlLk6GJQsqaUBKTNV-1">
          <mxGeometry x="158" y="280" width="120" height="40" as="geometry" />
        </mxCell>
        <mxCell id="Cm7LI1BW12UdwySumrKe-37" style="edgeStyle=elbowEdgeStyle;rounded=0;orthogonalLoop=1;jettySize=auto;html=1;exitX=1;exitY=0.25;exitDx=0;exitDy=0;shadow=0;labelBackgroundColor=none;endArrow=block;endFill=0;" edge="1" parent="WIyWlLk6GJQsqaUBKTNV-1" source="Cm7LI1BW12UdwySumrKe-31" target="Cm7LI1BW12UdwySumrKe-31">
          <mxGeometry relative="1" as="geometry" />
        </mxCell>
        <mxCell id="Cm7LI1BW12UdwySumrKe-55" value="" style="edgeStyle=elbowEdgeStyle;rounded=0;orthogonalLoop=1;jettySize=auto;html=1;shadow=0;labelBackgroundColor=none;endArrow=block;endFill=0;" edge="1" parent="WIyWlLk6GJQsqaUBKTNV-1" source="Cm7LI1BW12UdwySumrKe-38" target="Cm7LI1BW12UdwySumrKe-46">
          <mxGeometry relative="1" as="geometry" />
        </mxCell>
        <mxCell id="Cm7LI1BW12UdwySumrKe-61" value="" style="edgeStyle=elbowEdgeStyle;rounded=0;orthogonalLoop=1;jettySize=auto;html=1;shadow=0;labelBackgroundColor=none;endArrow=block;endFill=0;" edge="1" parent="WIyWlLk6GJQsqaUBKTNV-1" source="Cm7LI1BW12UdwySumrKe-38" target="Cm7LI1BW12UdwySumrKe-60">
          <mxGeometry relative="1" as="geometry" />
        </mxCell>
        <mxCell id="Cm7LI1BW12UdwySumrKe-38" value="具體描述?" style="rhombus;whiteSpace=wrap;html=1;" vertex="1" parent="WIyWlLk6GJQsqaUBKTNV-1">
          <mxGeometry x="166" y="580" width="104" height="80" as="geometry" />
        </mxCell>
        <mxCell id="Cm7LI1BW12UdwySumrKe-63" value="" style="edgeStyle=elbowEdgeStyle;rounded=0;orthogonalLoop=1;jettySize=auto;html=1;shadow=0;labelBackgroundColor=none;endArrow=block;endFill=0;" edge="1" parent="WIyWlLk6GJQsqaUBKTNV-1" source="Cm7LI1BW12UdwySumrKe-40" target="Cm7LI1BW12UdwySumrKe-62">
          <mxGeometry relative="1" as="geometry" />
        </mxCell>
        <mxCell id="Cm7LI1BW12UdwySumrKe-40" value="回傳對應按鈕" style="rounded=1;whiteSpace=wrap;html=1;" vertex="1" parent="WIyWlLk6GJQsqaUBKTNV-1">
          <mxGeometry x="340" y="820" width="120" height="40" as="geometry" />
        </mxCell>
        <mxCell id="Cm7LI1BW12UdwySumrKe-41" value="補足敘述" style="rounded=1;whiteSpace=wrap;html=1;" vertex="1" parent="WIyWlLk6GJQsqaUBKTNV-1">
          <mxGeometry x="520" y="700" width="110" height="40" as="geometry" />
        </mxCell>
        <mxCell id="Cm7LI1BW12UdwySumrKe-56" value="" style="edgeStyle=elbowEdgeStyle;rounded=0;orthogonalLoop=1;jettySize=auto;html=1;shadow=0;labelBackgroundColor=none;endArrow=block;endFill=0;" edge="1" parent="WIyWlLk6GJQsqaUBKTNV-1" source="Cm7LI1BW12UdwySumrKe-46" target="Cm7LI1BW12UdwySumrKe-48">
          <mxGeometry relative="1" as="geometry" />
        </mxCell>
        <mxCell id="Cm7LI1BW12UdwySumrKe-46" value="比對病況描述資料庫" style="rounded=1;whiteSpace=wrap;html=1;" vertex="1" parent="WIyWlLk6GJQsqaUBKTNV-1">
          <mxGeometry x="340" y="600" width="120" height="40" as="geometry" />
        </mxCell>
        <mxCell id="Cm7LI1BW12UdwySumrKe-57" value="" style="edgeStyle=elbowEdgeStyle;rounded=0;orthogonalLoop=1;jettySize=auto;html=1;shadow=0;labelBackgroundColor=none;endArrow=block;endFill=0;" edge="1" parent="WIyWlLk6GJQsqaUBKTNV-1" source="Cm7LI1BW12UdwySumrKe-48" target="Cm7LI1BW12UdwySumrKe-40">
          <mxGeometry relative="1" as="geometry" />
        </mxCell>
        <mxCell id="Cm7LI1BW12UdwySumrKe-59" value="" style="edgeStyle=elbowEdgeStyle;rounded=0;orthogonalLoop=1;jettySize=auto;html=1;shadow=0;labelBackgroundColor=none;endArrow=block;endFill=0;" edge="1" parent="WIyWlLk6GJQsqaUBKTNV-1" source="Cm7LI1BW12UdwySumrKe-48" target="Cm7LI1BW12UdwySumrKe-41">
          <mxGeometry relative="1" as="geometry" />
        </mxCell>
        <mxCell id="Cm7LI1BW12UdwySumrKe-48" value="特徵相符?" style="rhombus;whiteSpace=wrap;html=1;" vertex="1" parent="WIyWlLk6GJQsqaUBKTNV-1">
          <mxGeometry x="350" y="680" width="100" height="80" as="geometry" />
        </mxCell>
        <mxCell id="Cm7LI1BW12UdwySumrKe-77" value="" style="edgeStyle=elbowEdgeStyle;rounded=0;orthogonalLoop=1;jettySize=auto;html=1;shadow=0;labelBackgroundColor=none;endArrow=block;endFill=0;" edge="1" parent="WIyWlLk6GJQsqaUBKTNV-1" source="Cm7LI1BW12UdwySumrKe-60" target="Cm7LI1BW12UdwySumrKe-76">
          <mxGeometry relative="1" as="geometry" />
        </mxCell>
        <mxCell id="Cm7LI1BW12UdwySumrKe-60" value="比對廢話資料庫" style="rounded=1;whiteSpace=wrap;html=1;" vertex="1" parent="WIyWlLk6GJQsqaUBKTNV-1">
          <mxGeometry x="-20" y="600" width="120" height="40" as="geometry" />
        </mxCell>
        <mxCell id="Cm7LI1BW12UdwySumrKe-62" value="得到相關知識, 建議" style="whiteSpace=wrap;html=1;rounded=1;" vertex="1" parent="WIyWlLk6GJQsqaUBKTNV-1">
          <mxGeometry x="330" y="920" width="120" height="40" as="geometry" />
        </mxCell>
        <mxCell id="Cm7LI1BW12UdwySumrKe-68" style="edgeStyle=elbowEdgeStyle;rounded=0;orthogonalLoop=1;jettySize=auto;html=1;exitX=1;exitY=0.5;exitDx=0;exitDy=0;shadow=0;labelBackgroundColor=none;endArrow=block;endFill=0;" edge="1" parent="WIyWlLk6GJQsqaUBKTNV-1" source="Cm7LI1BW12UdwySumrKe-40" target="Cm7LI1BW12UdwySumrKe-40">
          <mxGeometry relative="1" as="geometry" />
        </mxCell>
        <mxCell id="Cm7LI1BW12UdwySumrKe-69" value="No" style="text;html=1;strokeColor=none;fillColor=none;align=center;verticalAlign=middle;whiteSpace=wrap;rounded=0;" vertex="1" parent="WIyWlLk6GJQsqaUBKTNV-1">
          <mxGeometry x="98" y="597" width="60" height="30" as="geometry" />
        </mxCell>
        <mxCell id="Cm7LI1BW12UdwySumrKe-70" value="Yes" style="text;html=1;strokeColor=none;fillColor=none;align=center;verticalAlign=middle;whiteSpace=wrap;rounded=0;" vertex="1" parent="WIyWlLk6GJQsqaUBKTNV-1">
          <mxGeometry x="279" y="597" width="60" height="30" as="geometry" />
        </mxCell>
        <mxCell id="Cm7LI1BW12UdwySumrKe-71" value="附近門診資料" style="rounded=1;whiteSpace=wrap;html=1;" vertex="1" parent="WIyWlLk6GJQsqaUBKTNV-1">
          <mxGeometry x="340" y="250" width="120" height="40" as="geometry" />
        </mxCell>
        <mxCell id="Cm7LI1BW12UdwySumrKe-73" value="No" style="text;html=1;strokeColor=none;fillColor=none;align=center;verticalAlign=middle;whiteSpace=wrap;rounded=0;" vertex="1" parent="WIyWlLk6GJQsqaUBKTNV-1">
          <mxGeometry x="374" y="294" width="60" height="30" as="geometry" />
        </mxCell>
        <mxCell id="Cm7LI1BW12UdwySumrKe-74" value="Yes" style="text;html=1;strokeColor=none;fillColor=none;align=center;verticalAlign=middle;whiteSpace=wrap;rounded=0;" vertex="1" parent="WIyWlLk6GJQsqaUBKTNV-1">
          <mxGeometry x="440" y="377" width="60" height="30" as="geometry" />
        </mxCell>
        <mxCell id="Cm7LI1BW12UdwySumrKe-79" value="" style="edgeStyle=elbowEdgeStyle;rounded=0;orthogonalLoop=1;jettySize=auto;html=1;shadow=0;labelBackgroundColor=none;endArrow=block;endFill=0;" edge="1" parent="WIyWlLk6GJQsqaUBKTNV-1" source="Cm7LI1BW12UdwySumrKe-76" target="Cm7LI1BW12UdwySumrKe-78">
          <mxGeometry relative="1" as="geometry" />
        </mxCell>
        <mxCell id="Cm7LI1BW12UdwySumrKe-87" value="" style="edgeStyle=elbowEdgeStyle;rounded=0;orthogonalLoop=1;jettySize=auto;html=1;shadow=0;labelBackgroundColor=none;endArrow=block;endFill=0;" edge="1" parent="WIyWlLk6GJQsqaUBKTNV-1" source="Cm7LI1BW12UdwySumrKe-76" target="Cm7LI1BW12UdwySumrKe-84">
          <mxGeometry relative="1" as="geometry" />
        </mxCell>
        <mxCell id="Cm7LI1BW12UdwySumrKe-76" value="特徵相符?" style="rhombus;whiteSpace=wrap;html=1;" vertex="1" parent="WIyWlLk6GJQsqaUBKTNV-1">
          <mxGeometry x="-12" y="680" width="110" height="80" as="geometry" />
        </mxCell>
        <mxCell id="Cm7LI1BW12UdwySumrKe-81" value="" style="edgeStyle=elbowEdgeStyle;rounded=0;orthogonalLoop=1;jettySize=auto;html=1;shadow=0;labelBackgroundColor=none;endArrow=block;endFill=0;" edge="1" parent="WIyWlLk6GJQsqaUBKTNV-1" source="Cm7LI1BW12UdwySumrKe-78" target="Cm7LI1BW12UdwySumrKe-80">
          <mxGeometry relative="1" as="geometry" />
        </mxCell>
        <mxCell id="Cm7LI1BW12UdwySumrKe-78" value="回傳對應按鈕" style="rounded=1;whiteSpace=wrap;html=1;" vertex="1" parent="WIyWlLk6GJQsqaUBKTNV-1">
          <mxGeometry x="-20" y="820" width="120" height="40" as="geometry" />
        </mxCell>
        <mxCell id="Cm7LI1BW12UdwySumrKe-80" value="得到相關知識, 建議" style="whiteSpace=wrap;html=1;rounded=1;" vertex="1" parent="WIyWlLk6GJQsqaUBKTNV-1">
          <mxGeometry x="-20" y="920" width="120" height="40" as="geometry" />
        </mxCell>
        <mxCell id="Cm7LI1BW12UdwySumrKe-84" value="與開發者聯絡" style="rounded=1;whiteSpace=wrap;html=1;" vertex="1" parent="WIyWlLk6GJQsqaUBKTNV-1">
          <mxGeometry x="150" y="700" width="110" height="40" as="geometry" />
        </mxCell>
        <mxCell id="Cm7LI1BW12UdwySumrKe-88" value="Yes" style="text;html=1;strokeColor=none;fillColor=none;align=center;verticalAlign=middle;whiteSpace=wrap;rounded=0;" vertex="1" parent="WIyWlLk6GJQsqaUBKTNV-1">
          <mxGeometry x="387" y="782" width="60" height="30" as="geometry" />
        </mxCell>
        <mxCell id="Cm7LI1BW12UdwySumrKe-89" value="Yes" style="text;html=1;strokeColor=none;fillColor=none;align=center;verticalAlign=middle;whiteSpace=wrap;rounded=0;" vertex="1" parent="WIyWlLk6GJQsqaUBKTNV-1">
          <mxGeometry x="30" y="786" width="60" height="30" as="geometry" />
        </mxCell>
        <mxCell id="Cm7LI1BW12UdwySumrKe-90" value="No" style="text;html=1;strokeColor=none;fillColor=none;align=center;verticalAlign=middle;whiteSpace=wrap;rounded=0;" vertex="1" parent="WIyWlLk6GJQsqaUBKTNV-1">
          <mxGeometry x="467" y="695" width="60" height="30" as="geometry" />
        </mxCell>
        <mxCell id="Cm7LI1BW12UdwySumrKe-91" value="No" style="text;html=1;strokeColor=none;fillColor=none;align=center;verticalAlign=middle;whiteSpace=wrap;rounded=0;" vertex="1" parent="WIyWlLk6GJQsqaUBKTNV-1">
          <mxGeometry x="103" y="693" width="60" height="30" as="geometry" />
        </mxCell>
      </root>
    </mxGraphModel>
  </diagram>
</mxfile>
